<svg xmlns="http://www.w3.org/2000/svg" width="2561" height="1441" fill="none" viewBox="0 0 2561 1441"><path fill="#B070FF" d="M2559.84 0L0 0L0 1440L2559.84 1440V0Z"/><path fill="#AC62FF" fill-opacity=".53" d="M777.551 1270.5C602.682 1231.26 420.134 1212.54 241.105 1235.58C159.19 1245.84 78.3951 1265.46 0 1295.7L0 1440.06L1350 1440.06C1164.57 1380.3 980.739 1317.48 793.87 1274.1C788.431 1272.84 782.991 1271.76 777.551 1270.5Z"/><path fill="#A854FF" fill-opacity=".53" d="M2559.84 0L0 0L0 1295.64C78.3951 1265.4 159.19 1245.6 241.105 1235.34C420.134 1212.48 602.682 1231.02 777.551 1270.26C782.991 1271.52 788.431 1272.78 793.87 1273.86C980.739 1317.06 1164.57 1380.06 1350 1439.82H2559.84V0Z"/><path fill="#A447FF" fill-opacity=".53" d="M765.392 1045.8C770.512 1047.24 775.632 1048.86 780.591 1050.3C1094.49 1144.8 1402.47 1290.6 1730.13 1368.18C2008.83 1434.06 2289.3 1420.74 2559.84 1349.82V0L0 0L0 1034.82C83.6748 1003.14 170.389 984.96 257.744 979.2C429.413 967.32 601.082 997.56 765.392 1045.8Z"/><path fill="#A039FF" fill-opacity=".53" d="M0 0L0 772.92C88.9544 739.8 181.589 723.78 274.223 723.06C438.693 721.62 599.323 763.92 753.073 821.16C757.873 822.96 762.512 824.76 767.312 826.56C1061.05 938.16 1352.4 1089.54 1667.1 1172.34C1965.8 1251 2269.14 1234.26 2559.68 1149.66V0L0 0Z"/><path fill="#9C2BFF" fill-opacity=".53" d="M290.862 466.92C447.972 477.72 597.883 530.28 740.914 596.7C745.393 598.68 749.713 600.84 754.193 602.82C1027.78 731.7 1302.48 888.12 1604.22 976.68C1922.28 1069.92 2249.62 1050.12 2559.84 950.04V0L0 0L0 509.76C94.3941 474.48 192.948 460.26 290.862 466.92Z"/><path fill="#AC4FFF" fill-opacity=".53" d="M2559.84 0L0 0L0 245.34C99.6738 207.72 204.307 195.84 307.501 210.78C457.251 232.56 596.283 296.64 728.754 372.06C732.914 374.4 736.914 376.74 741.074 379.08C994.498 525.06 1252.56 686.7 1541.5 780.84C1878.28 890.64 2230.74 869.04 2560 750.96V0L2559.84 0Z"/><path fill="#BC73FF" fill-opacity=".53" d="M728.083 155.34C961.349 318.6 1202.77 484.74 1478.76 585C1812.5 706.32 2168.79 694.44 2499.33 575.46C2519.81 568.08 2539.97 560.34 2560.29 552.24V0L461.22 0C550.815 38.34 635.129 91.08 716.724 147.6C720.564 150.12 724.244 152.82 728.083 155.34Z"/><path fill="#CC98FF" fill-opacity=".53" d="M2559.29 0L796.202 0C985.15 154.44 1185.78 296.1 1415.04 389.16C1721.9 513.72 2055 523.62 2366.98 427.14C2432.26 406.98 2496.74 381.78 2559.45 352.08V0L2559.29 0Z"/><path fill="#DCBCFF" fill-opacity=".53" d="M2236.42 278.64C2311.93 259.56 2386.17 233.1 2458.17 199.8C2492.88 183.78 2526.96 165.96 2560.4 146.7V0L1029.94 0C1130.57 75.06 1237.44 140.76 1353.27 193.32C1633.1 320.58 1943.16 352.98 2236.42 278.64Z"/><path fill="#ECE0FF" fill-opacity=".53" d="M2104.79 130.32C2225.26 107.64 2343.01 63.54 2451.65 0L1294.92 0C1547.22 127.8 1831.84 181.8 2104.79 130.32Z"/></svg>